<svg width="456" height="129" viewBox="0 0 456 129" fill="none" xmlns="http://www.w3.org/2000/svg">
<path fill-rule="evenodd" clip-rule="evenodd" d="M89.9682 77.3039L99.6133 82.0087L98.4632 86.3051L97.3123 90.6016L86.2052 89.8244C85.1424 92.1534 83.8582 94.3778 82.3714 96.463L88.5975 105.695L85.4528 108.839L82.3089 111.983L73.0837 105.761C71.0231 107.233 68.8029 108.522 66.4394 109.596L67.214 120.697L62.9175 121.848L58.6219 122.999L53.7426 112.996C51.1585 113.25 48.5916 113.245 46.07 113.001L41.1932 123L36.8967 121.849L32.6011 120.698L33.3782 109.59C31.0485 108.527 28.8233 107.243 26.738 105.757L17.5071 111.983L14.3623 108.839L11.2184 105.695L17.4379 96.4721C15.966 94.4107 14.6768 92.1888 13.6041 89.8253L2.50362 90.5999L1.35273 86.3035L0.201035 82.007L10.2025 77.1277C9.94977 74.5436 9.95636 71.9759 10.1992 69.4543L0.201035 64.5783L1.35108 60.2827L1.56349 59.4915C4.52302 62.0543 8.44408 63.9263 11.4472 65.162C13.903 66.1729 17.0197 67.2719 20.083 68.0721C19.3429 72.2854 19.4861 76.7227 20.6658 81.1278L20.6667 81.1286V81.1294C24.9936 97.278 41.5925 106.861 57.7419 102.534C69.5454 99.3707 77.8412 89.6524 79.761 78.3444C82.8407 78.1699 86.3699 77.8349 89.9682 77.3039Z" fill="#282C34"/>
<path d="M73.8098 78.5017C73.2681 80.9796 72.3452 83.3481 71.089 85.5239C67.959 90.944 62.7603 95.1738 56.2362 96.9216C49.7153 98.6685 43.0965 97.6073 37.6755 94.4765C32.2553 91.3474 28.0264 86.1454 26.2778 79.6237C25.341 76.1266 25.2117 72.6015 25.7765 69.2493C27.7061 70.0322 29.6761 70.7147 31.6535 71.3642C31.4239 73.5425 31.5819 75.7998 32.1821 78.0415C33.4935 82.9364 36.6654 86.8369 40.7314 89.184C44.7965 91.531 49.7614 92.3279 54.6547 91.0173C59.548 89.7067 63.4493 86.534 65.7972 82.468C66.5488 81.1648 67.1416 79.7711 67.5573 78.3156C69.6401 78.4325 71.7245 78.4951 73.8098 78.5017Z" fill="#282C34"/>
<path fill-rule="evenodd" clip-rule="evenodd" d="M5.18159 45.3302C5.27462 44.0131 5.35942 42.6967 5.5076 41.3853C5.78092 38.974 6.23533 36.5891 6.98777 34.28C8.96683 28.2094 12.7175 23.5211 18.0471 20.0676C19.622 17.1921 22.2555 15.1957 25.2422 13.9304C26.5207 13.3887 27.9597 12.9294 29.3394 12.6774C30.5767 11.4846 32.1936 10.7428 33.8335 10.2802C35.9689 9.68004 38.5811 9.43472 40.817 9.54174C43.7568 8.38921 47.09 8.16364 50.2126 8.39333C51.766 8.50693 53.3853 8.71933 54.9017 9.09472C59.4558 9.06179 64.0207 10.4588 68.0858 12.4329C69.5438 13.1409 70.963 13.9337 72.3279 14.8063C72.8441 15.1348 73.3562 15.4723 73.8476 15.8354C81.074 19.4996 86.248 25.6895 89.5821 32.9858C90.7165 35.4662 91.6328 38.0545 92.3136 40.6946C92.5425 41.5862 92.7574 42.4851 92.9154 43.3915C94.7669 45.4093 96.1137 47.8172 96.811 50.4722C96.997 51.1826 97.1444 51.926 97.23 52.6628C99.4066 53.3123 101.563 54.0393 103.656 54.9193C105.403 55.6528 107.159 56.5057 108.702 57.6121C110.797 59.1137 112.654 61.3315 112.091 64.0868C111.707 65.9605 110.311 67.4201 108.81 68.5051C101.714 73.6331 84.823 75.5479 76.0852 75.7035C67.7187 75.8517 59.3332 75.0342 51.1148 73.4989C45.0031 72.3579 38.9556 70.8234 33.0456 68.8929C30.7167 68.133 28.3878 67.337 26.128 66.3853C19.1815 65.7506 -7.54233 57.4351 2.05742 47.0385C2.89465 46.2407 4.04882 45.6727 5.18159 45.3302Z" fill="#282C34"/>
<path fill-rule="evenodd" clip-rule="evenodd" d="M15.4062 53.3551L18.2521 48.0321L18.5806 52.3557C23.1956 55.5507 35.1021 56.5715 40.421 56.6884C31.4988 57.2952 24.1251 56.5732 15.4062 53.3551ZM34.4155 65.3941C40.0859 67.2464 45.977 68.748 51.92 69.8569C68.6802 72.986 86.5271 73.0519 102.466 67.5494C103.894 67.0464 105.625 66.1309 106.708 65.2385C107.257 64.7874 107.819 64.2029 108.027 63.5764C109.197 60.0365 97.1296 56.509 94.5932 55.7911L93.155 55.3844L93.2225 54.1463C93.2702 53.2893 93.0603 52.159 92.843 51.3283C92.2741 49.1599 91.1315 47.1109 89.4142 45.378L89.0396 45.0001L88.9721 44.5194C88.8363 43.5348 88.5901 42.5033 88.3407 41.536C87.7183 39.1214 86.8737 36.7233 85.8158 34.4092C83.4877 29.3134 79.9511 24.2941 74.7688 20.7855C81.6741 28.7684 80.8106 36.8904 80.8106 36.8904C79.8285 27.3055 71.5475 18.9167 71.5475 18.9167L71.3985 18.8031C69.9052 17.6745 67.9022 16.5491 66.1677 15.7078C63.665 14.4927 60.801 13.4513 57.8719 13.0199C75.2323 22.2616 73.4986 37.5803 73.4986 37.5803C71.9229 19.8906 54.3823 12.819 54.3823 12.819L54.053 12.7334C52.791 12.4 51.207 12.1909 49.8997 12.0946C47.9981 11.9555 45.9655 12.0131 44.0992 12.4486C69.1396 20.9328 66.1389 40.0187 66.1389 40.0187C65.8944 20.3887 41.5974 13.3196 41.5974 13.3196L41.0039 13.2759C38.8281 13.1138 35.3787 13.3788 33.2679 14.5552C57.2652 18.3158 55.5397 41.0404 55.5397 41.0404C52.0064 16.1079 31.549 16.135 31.549 16.135L30.6813 16.2404C29.4745 16.3911 27.9638 16.8784 26.901 17.3361C24.8298 18.2285 23.1611 19.4914 22.0678 21.1403C29.3946 21.3148 33.929 24.756 33.929 24.756C27.7621 22.1693 21.3014 22.553 21.3014 22.553L20.8609 22.8271C15.7075 26.0386 12.5603 30.2716 10.9006 35.3633C10.2149 37.4675 9.81312 39.6203 9.5678 41.7895C9.36446 43.5817 9.28626 45.3706 9.13396 47.1628L9.02117 48.4898C9.02117 48.4898 11.5238 50.5389 13.9754 51.3415C13.9754 51.3415 9.42702 51.0863 6.65437 48.8125C6.02953 48.9838 5.37836 49.2752 5.01531 49.6152C-0.873293 55.1259 23.2615 62.4708 27.4048 62.8306C29.7058 63.8094 32.0388 64.6186 34.4155 65.3941Z" fill="#F6931D"/>
<path fill-rule="evenodd" clip-rule="evenodd" d="M34.4147 65.3941C40.0851 67.2464 45.977 68.748 51.92 69.8569C56.7713 70.7625 61.7123 71.4112 66.6723 71.7429C44.9085 68.6599 26.9117 56.3311 26.9117 56.3311L26.8985 56.3295C23.1643 55.7928 19.4285 54.8386 15.407 53.3543L18.2529 48.0313C11.4267 43.1553 11.8523 32.9323 11.8539 32.8994C11.4942 33.6955 11.178 34.5162 10.9023 35.3601C10.2157 37.4651 9.81476 39.6178 9.56944 41.787C9.36528 43.5792 9.2879 45.3681 9.1356 47.1603L9.02281 48.4874C9.02281 48.4874 11.5254 50.5364 13.977 51.3391C13.977 51.3391 9.42867 51.0838 6.65519 48.8101C6.03036 48.9813 5.37918 49.2727 5.01613 49.6127C-0.872468 55.1235 23.2623 62.4684 27.4057 62.8289C29.7058 63.8094 32.0388 64.6187 34.4147 65.3941Z" fill="#CF7D19"/>
<path fill-rule="evenodd" clip-rule="evenodd" d="M18.2521 48.0321L19.6014 51.6329C19.6014 51.6329 25.8843 55.801 40.4218 56.6884C35.1029 56.5715 23.1956 55.5507 18.5814 52.3557L18.2521 48.0321Z" fill="#CF7D19"/>
<path fill-rule="evenodd" clip-rule="evenodd" d="M72.5272 19.9935C71.9254 19.2996 71.5475 18.9167 71.5475 18.9167L71.3977 18.804C69.9052 17.6753 67.9022 16.5499 66.1677 15.7086C63.665 14.4935 60.801 13.4521 57.8719 13.0207C58.8746 13.5542 59.8098 14.1091 60.689 14.6787L60.6948 14.6804C60.6948 14.6804 67.163 16.6454 70.8996 19.4189C71.6397 19.9672 72.1633 20.1146 72.5272 19.9935Z" fill="#FFCE91"/>
<path fill-rule="evenodd" clip-rule="evenodd" d="M77.3332 22.7538C76.5388 22.0673 75.6974 21.4177 74.8083 20.8135L74.8051 20.8291C81.0896 28.1246 80.9011 35.523 80.8237 36.7217C80.911 35.4613 81.2979 27.4562 77.3332 22.7538Z" fill="#CF7D19"/>
<path fill-rule="evenodd" clip-rule="evenodd" d="M80.8097 36.8913C79.8276 27.3063 71.5467 18.9167 71.5467 18.9167L71.3969 18.804C70.6 18.2014 69.6574 17.5996 68.6876 17.0414C68.6884 17.0414 79.0604 27.2446 80.8097 36.8913Z" fill="#FFCE91"/>
<path fill-rule="evenodd" clip-rule="evenodd" d="M61.5074 13.8538C60.3227 13.49 59.1027 13.2018 57.8719 13.0199C75.2323 22.2615 73.4986 37.5803 73.4986 37.5803C73.4986 37.5803 75.6703 23.349 61.5074 13.8538Z" fill="#CF7D19"/>
<path fill-rule="evenodd" clip-rule="evenodd" d="M73.3957 36.627C71.2882 19.6379 54.3823 12.8207 54.3823 12.8207L54.0538 12.7351C53.5508 12.6025 52.9967 12.4889 52.4295 12.3951C52.4386 12.3992 70.707 20.62 73.4986 37.5819C73.4986 37.5811 73.4484 37.153 73.3957 36.627Z" fill="#FFCE91"/>
<path fill-rule="evenodd" clip-rule="evenodd" d="M66.1183 39.3272C66.1018 38.9263 66.0763 38.5287 66.0401 38.1385L66.1142 39.3931C66.1166 39.3717 66.1166 39.3503 66.1183 39.3272ZM46.3022 12.1037C45.5555 12.1703 44.8154 12.2823 44.1 12.4486C62.7891 18.7809 65.8582 31.0183 66.213 36.818C66.1158 17.5905 46.3137 12.1069 46.3022 12.1037Z" fill="#CF7D19"/>
<path fill-rule="evenodd" clip-rule="evenodd" d="M66.1405 40.0187L66.1397 40.0154V40.0056L66.0887 38.7814C64.8653 20.0923 41.5974 13.3196 41.5974 13.3196L41.0039 13.2759C40.5931 13.2447 40.137 13.2298 39.6537 13.2323C65.5733 21.4358 66.1405 40.0187 66.1405 40.0187Z" fill="#FFCE91"/>
<path fill-rule="evenodd" clip-rule="evenodd" d="M35.568 13.7024C34.7234 13.9065 33.9306 14.1856 33.2687 14.5544C57.266 18.3158 55.5414 41.0395 55.5414 41.0395C55.5414 41.0395 58.2342 18.3668 35.568 13.7024Z" fill="#CF7D19"/>
<path fill-rule="evenodd" clip-rule="evenodd" d="M55.464 40.5514C51.7323 16.112 31.549 16.1342 31.549 16.1342L30.6813 16.2396C30.2524 16.2931 29.7856 16.3886 29.3139 16.5112C50.7773 18.6706 54.9042 37.2913 55.464 40.5514Z" fill="#FFCE91"/>
<path fill-rule="evenodd" clip-rule="evenodd" d="M23.6015 19.3835C23.0088 19.9104 22.4951 20.4957 22.0678 21.1387C29.3946 21.3132 33.929 24.7543 33.929 24.7543C29.8227 20.5731 23.6015 19.3835 23.6015 19.3835Z" fill="#CF7D19"/>
<path fill-rule="evenodd" clip-rule="evenodd" d="M33.929 24.7551C27.7621 22.1685 21.3014 22.5521 21.3014 22.5521L20.8609 22.8263C20.3464 23.1465 19.8525 23.4775 19.3775 23.8183C27.884 22.9053 33.929 24.7551 33.929 24.7551Z" fill="#FFCE91"/>
<path fill-rule="evenodd" clip-rule="evenodd" d="M52.7819 52.2512C52.7819 52.2512 53.7566 52.5253 53.4158 57.8961L55.3397 58.8675C55.3397 58.8675 74.1794 61.2566 91.0681 53.7091C91.0681 53.7091 78.4792 61.8353 55.7554 60.733L55.4549 66.2207L54.1394 67.0455L54.5765 59.9106L52.0904 58.8749L52.7819 52.2512Z" fill="#404042"/>
<path fill-rule="evenodd" clip-rule="evenodd" d="M73.8559 56.8563L71.2067 41.5812L81.7194 40.4394L85.4421 41.2231L74.3078 42.9708L73.8559 56.8563Z" fill="#404042"/>
<path fill-rule="evenodd" clip-rule="evenodd" d="M73.8559 56.8572L71.9624 45.9386L71.2067 41.5812L70.0863 43.1989L73.8559 56.8572Z" fill="#CF7D19"/>
<path fill-rule="evenodd" clip-rule="evenodd" d="M75.1607 47.7563C75.3698 46.37 75.5567 45.196 75.6752 44.5761C75.7255 44.3177 75.7625 44.1555 75.7856 44.1151C75.8629 43.9777 77.0517 43.5866 78.5697 43.1355C78.8504 43.0515 79.1419 42.9667 79.4399 42.8803C79.5074 42.8605 79.5757 42.8408 79.6432 42.821C82.3344 42.0455 85.4429 41.2223 85.4429 41.2223L77.4534 42.4761L74.661 42.9149L74.3078 42.97L74.1704 47.1924L73.8559 56.8564C73.8559 56.8572 74.5927 51.5243 75.1607 47.7563Z" fill="#FFCE91"/>
<path fill-rule="evenodd" clip-rule="evenodd" d="M53.6775 59.536L52.0969 58.8782L52.0904 58.8758L52.1447 58.3571L52.1455 58.3489L52.1587 58.2213L52.7811 52.2528L50.5838 59.4018C50.5838 59.4018 52.1225 60.1839 52.9276 60.612C53.1787 60.7453 53.3581 60.8441 53.3993 60.8738C53.4191 60.8886 53.4438 60.9816 53.4726 61.1347C53.6487 62.074 53.969 65.2781 54.09 66.5351C54.1213 66.8529 54.1394 67.0472 54.1394 67.0472L54.197 66.1054L54.5765 59.9114L54.5197 59.8883L53.6775 59.536Z" fill="#CF7D19"/>
<path fill-rule="evenodd" clip-rule="evenodd" d="M55.4549 66.2198L56.5737 61.8443C56.5737 61.8443 57.7246 61.9176 59.6872 61.8921C60.6882 61.8789 61.9 61.8402 63.2765 61.753C63.4699 61.7406 63.6675 61.7274 63.8692 61.7126C66.2986 61.5389 69.1923 61.2137 72.3263 60.6227C73.3372 60.4325 74.3729 60.2143 75.4274 59.9649C76.0432 59.8192 76.6664 59.6619 77.2929 59.4932C79.4242 58.921 81.6066 58.2155 83.7816 57.3462C85.3845 56.7057 86.9832 55.9755 88.5531 55.1457C88.9433 54.939 89.3319 54.7258 89.718 54.5068C89.7567 54.4854 89.7962 54.4632 89.8349 54.441C89.8859 54.4122 89.9361 54.3834 89.9872 54.3537C90.2613 54.1957 90.5354 54.0343 90.8071 53.8697C90.6252 53.9775 90.3477 54.1364 89.9789 54.334C89.9287 54.3611 89.8785 54.3883 89.8242 54.4171C89.7847 54.4377 89.7443 54.4591 89.704 54.4805C89.3574 54.6616 88.9458 54.8691 88.4699 55.0946C87.3421 55.6314 85.8512 56.2752 84.0129 56.9337C82.3731 57.5215 80.4574 58.1217 78.2725 58.67C76.9611 58.9984 75.5534 59.3088 74.0518 59.5854C73.3496 59.7146 72.6284 59.8373 71.885 59.9509C69.2894 60.3477 66.4426 60.6408 63.3555 60.7667C63.1374 60.7758 62.92 60.784 62.6994 60.7906C61.3435 60.835 59.9407 60.8474 58.4951 60.8227C58.4317 60.8219 58.3667 60.8202 58.3033 60.8194C57.4694 60.8029 56.6198 60.775 55.7562 60.733L55.6369 62.9022L55.4549 66.2198Z" fill="#FFCE91"/>
<path fill-rule="evenodd" clip-rule="evenodd" d="M79.5724 26.7687C81.6824 29.3035 83.3453 32.1058 84.6369 34.9328C85.694 37.2469 86.5395 39.6458 87.161 42.0595C87.4113 43.0285 87.6566 44.0592 87.7932 45.0437L87.8558 45.4982L87.8599 45.5253L88.1991 45.8678L88.2345 45.9024C89.5599 47.2401 90.5437 48.7656 91.1841 50.3882C91.3735 50.869 91.5332 51.3571 91.6633 51.8527C91.8822 52.6834 92.0913 53.8137 92.0436 54.6707L91.9761 55.908L93.4135 56.3155C93.4785 56.3328 93.5501 56.3534 93.6275 56.3756C96.5591 57.2136 107.987 60.6515 106.848 64.1008C106.641 64.7273 106.079 65.311 105.53 65.7629C104.845 66.3268 103.901 66.8998 102.94 67.3715C104.262 66.8479 105.742 66.0338 106.708 65.2385C107.257 64.7874 107.819 64.2029 108.027 63.5772C109.197 60.0365 97.1296 56.5089 94.5932 55.7911L93.2365 55.4074L93.1558 55.3844L93.1673 55.1844L93.2233 54.1454C93.2702 53.2884 93.0603 52.1581 92.843 51.3275C92.2733 49.1591 91.1315 47.1101 89.4142 45.3772L89.0396 44.9993L88.9721 44.5185C88.8363 43.5348 88.5901 42.5032 88.3407 41.5351C87.7183 39.1206 86.8737 36.7217 85.8158 34.4075C83.8944 30.2016 81.1489 26.0468 77.3332 22.753C78.3302 23.9368 79.0521 25.3281 79.5724 26.7687Z" fill="#FFCE91"/>
<path d="M227.328 23.988H239.76C240.936 23.988 241.524 24.576 241.524 25.752V76.236C241.524 77.412 240.936 78 239.76 78H232.872C231.696 78 231.108 77.412 231.108 76.236V36.42H230.772L222.204 64.56C221.868 65.68 221.168 66.24 220.104 66.24H213.048C211.984 66.24 211.284 65.68 210.948 64.56L202.212 36.336H201.876V76.236C201.876 76.908 201.764 77.384 201.54 77.664C201.316 77.888 200.84 78 200.112 78H193.224C192.048 78 191.46 77.412 191.46 76.236V25.752C191.46 24.576 192.048 23.988 193.224 23.988H205.74C206.524 23.988 207.056 24.38 207.336 25.164L216.24 54.816H216.744L225.732 25.164C225.9 24.38 226.432 23.988 227.328 23.988ZM268.873 78H261.733C260.557 78 259.969 77.412 259.969 76.236V36.924C259.969 35.748 260.557 35.16 261.733 35.16H268.873C270.049 35.16 270.637 35.748 270.637 36.924V39.78H270.973C271.589 38.268 272.681 37.12 274.249 36.336C275.817 35.552 277.469 35.16 279.205 35.16H282.229C283.349 35.16 283.909 35.748 283.909 36.924V42.72C283.909 43.392 283.769 43.868 283.489 44.148C283.265 44.372 282.845 44.456 282.229 44.4H276.433C272.569 44.4 270.637 46.584 270.637 50.952V76.236C270.637 77.412 270.049 78 268.873 78ZM307.398 78H300.258C299.082 78 298.494 77.412 298.494 76.236V25.752C298.494 24.576 299.082 23.988 300.258 23.988H307.398C308.574 23.988 309.162 24.576 309.162 25.752V45.492C309.162 46.108 309.498 46.416 310.17 46.416H324.366C324.982 46.416 325.29 46.108 325.29 45.492V25.752C325.29 24.576 325.878 23.988 327.054 23.988H334.194C335.37 23.988 335.958 24.576 335.958 25.752V76.236C335.958 77.412 335.37 78 334.194 78H327.054C325.878 78 325.29 77.412 325.29 76.236V56.58C325.29 55.964 324.982 55.656 324.366 55.656H310.17C309.498 55.656 309.162 55.964 309.162 56.58V76.236C309.162 77.412 308.574 78 307.398 78ZM364.197 78H357.057C355.881 78 355.293 77.412 355.293 76.236V25.752C355.293 24.576 355.881 23.988 357.057 23.988H377.049C381.417 23.988 384.833 25.192 387.297 27.6C389.761 30.008 390.993 33.396 390.993 37.764V44.316C390.993 50.644 388.501 54.844 383.517 56.916V57.252L392.505 75.984C393.009 77.328 392.533 78 391.077 78H384.273C383.265 78 382.537 77.888 382.089 77.664C381.641 77.44 381.277 76.964 380.997 76.236L372.597 58.092H366.969C366.297 58.092 365.961 58.4 365.961 59.016V76.236C365.961 77.412 365.373 78 364.197 78ZM366.885 49.524H375.117C376.909 49.524 378.225 49.16 379.065 48.432C379.905 47.648 380.325 46.416 380.325 44.736V38.184C380.325 36.448 379.905 35.188 379.065 34.404C378.225 33.62 376.909 33.228 375.117 33.228H366.885C366.269 33.228 365.961 33.536 365.961 34.152V48.6C365.961 49.216 366.269 49.524 366.885 49.524Z" fill="#282C34"/>
<path d="M129.864 119H128.604C128.343 119 128.212 118.869 128.212 118.608V101.388C128.212 101.127 128.343 100.996 128.604 100.996H129.864C130.125 100.996 130.256 101.127 130.256 101.388V108.752C130.256 108.92 130.349 109.004 130.536 109.004H137.48C137.667 109.004 137.76 108.92 137.76 108.752V101.388C137.76 101.127 137.891 100.996 138.152 100.996H139.412C139.673 100.996 139.804 101.127 139.804 101.388V118.608C139.804 118.869 139.673 119 139.412 119H138.152C137.891 119 137.76 118.869 137.76 118.608V111.048C137.76 110.88 137.667 110.796 137.48 110.796H130.536C130.349 110.796 130.256 110.88 130.256 111.048V118.608C130.256 118.869 130.125 119 129.864 119ZM156.723 117.208H159.579C161.147 117.208 161.931 116.396 161.931 114.772V105.224C161.931 103.6 161.147 102.788 159.579 102.788H156.723C155.174 102.788 154.399 103.6 154.399 105.224V114.772C154.399 116.396 155.174 117.208 156.723 117.208ZM159.831 119H156.499C155.211 119 154.194 118.636 153.447 117.908C152.719 117.18 152.355 116.163 152.355 114.856V105.14C152.355 103.833 152.719 102.816 153.447 102.088C154.194 101.36 155.211 100.996 156.499 100.996H159.831C161.119 100.996 162.127 101.369 162.855 102.116C163.602 102.844 163.975 103.852 163.975 105.14V114.856C163.975 116.144 163.602 117.161 162.855 117.908C162.127 118.636 161.119 119 159.831 119ZM189.168 100.996H191.436C191.697 100.996 191.828 101.127 191.828 101.388V118.608C191.828 118.869 191.697 119 191.436 119H190.204C189.943 119 189.812 118.869 189.812 118.608V103.74H189.7L185.36 114.716C185.248 114.959 185.08 115.08 184.856 115.08H183.512C183.269 115.08 183.111 114.959 183.036 114.716L178.612 103.712H178.5V118.608C178.5 118.869 178.379 119 178.136 119H176.904C176.643 119 176.512 118.869 176.512 118.608V101.388C176.512 101.127 176.643 100.996 176.904 100.996H179.172C179.34 100.996 179.452 101.071 179.508 101.22L184.1 112.812H184.24L188.832 101.22C188.869 101.071 188.981 100.996 189.168 100.996ZM213.838 119H205.046C204.785 119 204.654 118.869 204.654 118.608V101.388C204.654 101.127 204.785 100.996 205.046 100.996H213.838C214.1 100.996 214.23 101.127 214.23 101.388V102.396C214.23 102.657 214.1 102.788 213.838 102.788H206.978C206.792 102.788 206.698 102.872 206.698 103.04V108.696C206.698 108.864 206.792 108.948 206.978 108.948H212.97C213.232 108.948 213.362 109.079 213.362 109.34V110.348C213.362 110.609 213.232 110.74 212.97 110.74H206.978C206.792 110.74 206.698 110.824 206.698 110.992V116.956C206.698 117.124 206.792 117.208 206.978 117.208H213.838C214.1 117.208 214.23 117.339 214.23 117.6V118.608C214.23 118.869 214.1 119 213.838 119ZM243.669 119H242.409C242.147 119 242.017 118.869 242.017 118.608V101.388C242.017 101.127 242.147 100.996 242.409 100.996H248.849C250.137 100.996 251.154 101.369 251.901 102.116C252.647 102.844 253.021 103.852 253.021 105.14V107.688C253.021 108.733 252.769 109.601 252.265 110.292C251.761 110.964 251.061 111.412 250.165 111.636V111.748L253.413 118.552C253.581 118.851 253.487 119 253.133 119H251.873C251.555 119 251.322 118.869 251.173 118.608L248.037 111.832H244.341C244.154 111.832 244.061 111.916 244.061 112.084V118.608C244.061 118.869 243.93 119 243.669 119ZM244.341 110.124H248.569C250.174 110.124 250.977 109.321 250.977 107.716V105.224C250.977 103.6 250.174 102.788 248.569 102.788H244.341C244.154 102.788 244.061 102.872 244.061 103.04V109.872C244.061 110.04 244.154 110.124 244.341 110.124ZM274.64 119H265.848C265.586 119 265.456 118.869 265.456 118.608V101.388C265.456 101.127 265.586 100.996 265.848 100.996H274.64C274.901 100.996 275.032 101.127 275.032 101.388V102.396C275.032 102.657 274.901 102.788 274.64 102.788H267.78C267.593 102.788 267.5 102.872 267.5 103.04V108.696C267.5 108.864 267.593 108.948 267.78 108.948H273.772C274.033 108.948 274.164 109.079 274.164 109.34V110.348C274.164 110.609 274.033 110.74 273.772 110.74H267.78C267.593 110.74 267.5 110.824 267.5 110.992V116.956C267.5 117.124 267.593 117.208 267.78 117.208H274.64C274.901 117.208 275.032 117.339 275.032 117.6V118.608C275.032 118.869 274.901 119 274.64 119ZM288.933 119H287.701C287.44 119 287.309 118.869 287.309 118.608V101.388C287.309 101.127 287.44 100.996 287.701 100.996H288.849C289.073 100.996 289.222 101.071 289.297 101.22L297.025 114.8H297.137V101.388C297.137 101.127 297.268 100.996 297.529 100.996H298.761C299.022 100.996 299.153 101.127 299.153 101.388V118.608C299.153 118.869 299.022 119 298.761 119H297.725C297.52 119 297.324 118.879 297.137 118.636L289.437 105.196H289.325V118.608C289.325 118.869 289.194 119 288.933 119ZM316.066 117.208H318.922C320.49 117.208 321.274 116.396 321.274 114.772V105.224C321.274 103.6 320.49 102.788 318.922 102.788H316.066C314.517 102.788 313.742 103.6 313.742 105.224V114.772C313.742 116.396 314.517 117.208 316.066 117.208ZM319.174 119H315.842C314.554 119 313.537 118.636 312.79 117.908C312.062 117.18 311.698 116.163 311.698 114.856V105.14C311.698 103.833 312.062 102.816 312.79 102.088C313.537 101.36 314.554 100.996 315.842 100.996H319.174C320.462 100.996 321.47 101.369 322.198 102.116C322.945 102.844 323.318 103.852 323.318 105.14V114.856C323.318 116.144 322.945 117.161 322.198 117.908C321.47 118.636 320.462 119 319.174 119ZM341.735 119H339.747C339.504 119 339.346 118.869 339.271 118.608L334.315 101.416C334.259 101.136 334.38 100.996 334.679 100.996H336.051C336.294 100.996 336.443 101.127 336.499 101.388L340.671 116.704H340.783L344.955 101.388C345.011 101.127 345.16 100.996 345.403 100.996H346.803C347.083 100.996 347.195 101.136 347.139 101.416L342.183 118.608C342.108 118.869 341.959 119 341.735 119ZM358.643 119H357.243C357 119 356.916 118.869 356.991 118.608L362.227 101.388C362.302 101.127 362.479 100.996 362.759 100.996H364.775C365.055 100.996 365.232 101.127 365.307 101.388L370.543 118.608C370.618 118.869 370.534 119 370.291 119H368.863C368.658 119 368.527 118.869 368.471 118.608L367.155 114.52H360.379L359.063 118.608C358.988 118.869 358.848 119 358.643 119ZM363.711 103.096L360.827 112.784H366.707L363.823 103.096H363.711ZM386.336 119H385.076C384.815 119 384.684 118.869 384.684 118.608V103.04C384.684 102.872 384.591 102.788 384.404 102.788H380.596C380.316 102.788 380.176 102.657 380.176 102.396V101.388C380.176 101.127 380.316 100.996 380.596 100.996H390.816C391.096 100.996 391.236 101.127 391.236 101.388V102.396C391.236 102.657 391.096 102.788 390.816 102.788H387.008C386.821 102.788 386.728 102.872 386.728 103.04V118.608C386.728 118.869 386.597 119 386.336 119ZM404.473 101.388V118.608C404.473 118.869 404.343 119 404.081 119H402.821C402.56 119 402.429 118.869 402.429 118.608V101.388C402.429 101.127 402.56 100.996 402.821 100.996H404.081C404.343 100.996 404.473 101.127 404.473 101.388ZM421.531 117.208H424.387C425.955 117.208 426.739 116.396 426.739 114.772V105.224C426.739 103.6 425.955 102.788 424.387 102.788H421.531C419.982 102.788 419.207 103.6 419.207 105.224V114.772C419.207 116.396 419.982 117.208 421.531 117.208ZM424.639 119H421.307C420.019 119 419.002 118.636 418.255 117.908C417.527 117.18 417.163 116.163 417.163 114.856V105.14C417.163 103.833 417.527 102.816 418.255 102.088C419.002 101.36 420.019 100.996 421.307 100.996H424.639C425.927 100.996 426.935 101.369 427.663 102.116C428.41 102.844 428.783 103.852 428.783 105.14V114.856C428.783 116.144 428.41 117.161 427.663 117.908C426.935 118.636 425.927 119 424.639 119ZM442.944 119H441.712C441.45 119 441.32 118.869 441.32 118.608V101.388C441.32 101.127 441.45 100.996 441.712 100.996H442.86C443.084 100.996 443.233 101.071 443.308 101.22L451.036 114.8H451.148V101.388C451.148 101.127 451.278 100.996 451.54 100.996H452.772C453.033 100.996 453.164 101.127 453.164 101.388V118.608C453.164 118.869 453.033 119 452.772 119H451.736C451.53 119 451.334 118.879 451.148 118.636L443.448 105.196H443.336V118.608C443.336 118.869 443.205 119 442.944 119Z" fill="#282C34"/>
</svg>
